<?xml version="1.0" standalone="no"?>
<!DOCTYPE svg PUBLIC "-//W3C//DTD SVG 20010904//EN"
 "http://www.w3.org/TR/2001/REC-SVG-20010904/DTD/svg10.dtd">
<svg version="1.0" xmlns="http://www.w3.org/2000/svg"
 width="200.000000pt" height="200.000000pt" viewBox="0 0 200.000000 200.000000"
 preserveAspectRatio="xMidYMid meet">

<g transform="translate(0.000000,200.000000) scale(0.100000,-0.100000)"
fill="#000000" stroke="none">
<path d="M1205 1936 c-52 -25 -81 -61 -97 -122 -27 -99 -30 -116 -18 -109 5 3
10 14 10 23 0 9 7 30 15 46 8 15 15 35 15 42 0 8 22 37 48 64 l48 50 67 0 c58
0 69 -3 96 -28 17 -15 43 -57 57 -92 23 -56 27 -80 28 -173 l1 -108 -150 -5
c-82 -3 -152 -8 -154 -10 -2 -2 1 -14 7 -27 24 -47 48 -123 44 -139 -2 -10 2
-18 8 -18 6 0 9 -4 6 -9 -9 -14 22 -23 99 -30 82 -7 82 -8 84 -142 1 -121 1
-121 -215 -117 l-165 3 6 -35 c4 -19 13 -46 20 -60 7 -14 18 -45 25 -70 22
-84 7 -80 324 -80 239 0 285 2 304 16 l22 15 0 348 0 349 -31 6 c-17 3 -67 6
-109 6 l-78 0 -6 68 c-18 195 -51 283 -124 325 -43 25 -146 32 -187 13z"/>
<path d="M600 1471 l-75 -6 85 -7 c47 -5 107 -8 134 -8 46 0 48 1 30 15 -20
15 -44 16 -174 6z"/>
<path d="M823 1403 c-3 -10 -16 -45 -28 -78 -101 -269 -138 -388 -129 -414 5
-14 16 -26 23 -26 12 0 53 69 87 146 6 13 31 65 56 114 26 50 58 114 72 143
l25 53 10 -33 c15 -52 80 -230 85 -235 6 -6 66 152 66 174 0 10 -15 28 -33 39
-62 42 -215 134 -221 134 -4 0 -9 -8 -13 -17z"/>
<path d="M420 960 c0 -5 25 -10 55 -10 30 0 55 5 55 10 0 6 -25 10 -55 10 -30
0 -55 -4 -55 -10z"/>
<path d="M1210 532 c0 -4 4 -12 9 -17 4 -6 14 -32 21 -60 12 -43 46 -133 56
-144 1 -2 93 -5 203 -8 l200 -4 16 24 c12 19 15 46 13 118 l-3 94 -257 3
c-142 1 -258 -1 -258 -6z"/>
<path d="M188 393 c12 -2 32 -2 45 0 12 2 2 4 -23 4 -25 0 -35 -2 -22 -4z"/>
<path d="M1460 250 c-30 -28 -32 -34 -28 -80 l5 -50 -34 0 c-27 0 -34 -4 -31
-17 3 -15 16 -18 83 -21 98 -4 120 2 151 35 56 60 9 163 -74 163 -31 0 -47 -7
-72 -30z"/>
<path d="M222 99 c2 -6 7 -10 11 -10 4 1 23 1 42 1 19 0 35 5 35 10 0 6 -21
10 -46 10 -28 0 -44 -4 -42 -11z"/>
</g>
</svg>
